<svg xmlns="http://www.w3.org/2000/svg" viewBox="85.02 72.72 606.1 266.78"><path d="m85.02 168.04 5.33-11.23c7.49 6.77 20.3 11.66 33.26 11.66 17.42 0 24.91-6.77 24.91-15.55 0-24.62-61.05-9.07-61.05-46.51 0-15.55 12.1-28.8 38.59-28.8 11.81 0 24.05 3.17 32.4 8.93l-4.75 11.52c-8.78-5.62-18.72-8.21-27.65-8.21-17.14 0-24.48 7.2-24.48 15.98 0 24.62 61.06 9.22 61.06 46.22 0 15.41-12.38 28.66-39.02 28.66-15.41 0-30.53-5.18-38.59-12.67Z"/><path d="M243.41 103.25 206.4 187.2c-6.77 16.13-15.55 21.17-27.22 21.17-7.34 0-14.83-2.45-19.58-7.06l5.9-10.37c3.74 3.6 8.5 5.62 13.68 5.62 6.62 0 10.8-3.02 14.54-11.81l2.45-5.33-33.7-76.17h14.4l26.64 61.05 26.35-61.05h13.54ZM252.05 72.72h13.82v106.85h-13.82V72.72ZM355.44 103.25l-33.41 76.32h-14.11l-33.41-76.32h14.4l26.21 61.2 26.78-61.2h13.54ZM430.61 146.01h-61.92c1.73 13.39 12.53 22.32 27.65 22.32 8.93 0 16.42-3.02 22.03-9.22l7.63 8.93c-6.91 8.06-17.42 12.38-30.1 12.38-24.62 0-41.04-16.27-41.04-39.02s16.27-38.88 38.3-38.88 37.73 15.84 37.73 39.31c0 1.15-.14 2.88-.29 4.18Zm-61.92-9.93h48.96c-1.44-12.82-11.09-21.89-24.48-21.89s-23.04 8.93-24.48 21.89ZM436.08 171.5l5.76-10.94c6.48 4.61 16.85 7.92 26.78 7.92 12.82 0 18.14-3.89 18.14-10.37 0-17.14-48.24-2.3-48.24-32.69 0-13.68 12.24-22.9 31.82-22.9 9.94 0 21.17 2.59 27.79 6.91l-5.9 10.94c-6.91-4.46-14.54-6.05-22.03-6.05-12.1 0-18 4.46-18 10.51 0 18 48.38 3.31 48.38 32.98 0 13.82-12.67 22.61-32.98 22.61-12.67 0-25.2-3.89-31.54-8.93ZM556.46 175.1c-4.18 3.6-10.51 5.33-16.7 5.33-15.41 0-24.19-8.5-24.19-23.9v-41.9h-12.96v-11.38h12.96v-16.7h13.82v16.7h21.89v11.38h-21.89v41.33c0 8.21 4.32 12.82 11.95 12.82 4.03 0 7.92-1.3 10.8-3.6l4.32 9.94ZM634.94 146.01h-61.92c1.73 13.39 12.53 22.32 27.65 22.32 8.93 0 16.42-3.02 22.03-9.22l7.63 8.93c-6.91 8.06-17.42 12.38-30.1 12.38-24.62 0-41.04-16.27-41.04-39.02s16.27-38.88 38.3-38.88 37.73 15.84 37.73 39.31c0 1.15-.14 2.88-.29 4.18Zm-61.91-9.93h48.96c-1.44-12.82-11.09-21.89-24.48-21.89s-23.04 8.93-24.48 21.89ZM691.1 102.52v13.39c-1.15-.14-2.16-.14-3.17-.14-14.83 0-24.05 9.07-24.05 25.78v38.02h-13.82v-76.32h13.25v12.82c4.9-8.93 14.4-13.54 27.79-13.54ZM197.62 300.04l5.33-11.23c7.49 6.77 20.3 11.66 33.26 11.66 17.42 0 24.91-6.77 24.91-15.55 0-24.62-61.05-9.07-61.05-46.51 0-15.55 12.1-28.8 38.59-28.8 11.81 0 24.05 3.17 32.4 8.93l-4.75 11.52c-8.78-5.62-18.72-8.21-27.65-8.21-17.14 0-24.48 7.2-24.48 15.98 0 24.62 61.06 9.22 61.06 46.22 0 15.41-12.38 28.66-39.02 28.66-15.41 0-30.53-5.18-38.59-12.67ZM332.84 307.1c-4.18 3.6-10.51 5.33-16.7 5.33-15.41 0-24.19-8.5-24.19-23.9v-41.9h-12.96v-11.38h12.96v-16.7h13.82v16.7h21.89v11.38h-21.89v41.33c0 8.21 4.32 12.82 11.95 12.82 4.03 0 7.92-1.3 10.8-3.6l4.32 9.94ZM405.7 265.48v46.08h-13.1v-10.08c-4.61 6.91-13.1 10.94-25.06 10.94-17.28 0-28.22-9.22-28.22-22.46 0-12.24 7.92-22.32 30.67-22.32h21.89v-2.74c0-11.66-6.77-18.43-20.45-18.43-9.07 0-18.29 3.17-24.19 8.21l-5.76-10.37c7.92-6.34 19.3-9.79 31.54-9.79 20.88 0 32.69 10.08 32.69 30.96Zm-13.82 22.76v-10.66h-21.31c-13.68 0-17.57 5.33-17.57 11.81 0 7.63 6.34 12.38 16.85 12.38s18.58-4.75 22.03-13.54ZM506.07 273.4c0 23.47-16.27 39.02-38.59 39.02-10.8 0-20.3-4.18-26.64-12.38v39.46h-13.82V235.25h13.25v12.1c6.19-8.5 15.98-12.82 27.22-12.82 22.32 0 38.59 15.55 38.59 38.88Zm-13.97 0c0-16.13-11.09-26.78-25.78-26.78s-25.63 10.66-25.63 26.78 11.09 26.93 25.63 26.93 25.78-10.66 25.78-26.93ZM536.45 228.62v6.62h22.18v11.38h-21.89v64.94h-13.82v-64.94h-12.96v-11.38h12.96v-6.77c0-14.83 8.93-24.62 25.2-24.62 5.9 0 11.66 1.44 15.55 4.46l-4.18 10.51c-2.88-2.16-6.62-3.6-10.66-3.6-8.21 0-12.38 4.61-12.38 13.39ZM634.95 278.01h-61.92c1.73 13.39 12.53 22.32 27.65 22.32 8.93 0 16.42-3.02 22.03-9.22l7.63 8.93c-6.91 8.06-17.42 12.38-30.1 12.38-24.62 0-41.04-16.27-41.04-39.02s16.27-38.88 38.3-38.88 37.73 15.84 37.73 39.31c0 1.15-.14 2.88-.29 4.18Zm-61.92-9.93h48.96c-1.44-12.82-11.09-21.89-24.48-21.89s-23.04 8.93-24.48 21.89ZM691.11 234.53v13.39c-1.15-.14-2.16-.14-3.17-.14-14.83 0-24.05 9.07-24.05 25.78v38.02h-13.82v-76.32h13.25v12.82c4.9-8.93 14.4-13.54 27.79-13.54Z"/></svg>